<svg width="187" height="178" viewBox="0 0 187 178" fill="none" xmlns="http://www.w3.org/2000/svg">
<g filter="url(#filter0_d_1_12)">
<path d="M53.8907 165.864C58.9748 168.58 64.5344 169.571 69.8113 169.029C77.7526 168.212 85.0372 163.924 89.0423 156.86C89.0546 156.845 89.066 156.829 89.0765 156.812C89.0862 156.795 89.096 156.779 89.1049 156.762L89.1186 156.737C89.1282 156.719 89.1371 156.702 89.1461 156.686L103.263 131.337L124.843 153.017C124.864 153.041 124.886 153.059 124.907 153.079C124.917 153.088 124.926 153.097 124.936 153.108C135.084 163.215 151.621 163.972 161.848 154.782C172.088 145.592 172.205 129.845 162.147 119.641L162.124 119.616C162.105 119.594 162.09 119.578 162.068 119.561L140.525 97.8639L167.952 85.8995C180.835 80.2795 186.06 65.4945 179.588 52.9564C173.117 40.419 157.368 34.781 144.47 40.39L117.038 52.3176L112.408 23.2259C110.227 9.56706 96.8611 -0.359636 82.6086 1.10509C68.3562 2.56982 58.5195 14.881 60.6763 28.555L65.2635 57.6259L34.9867 51.629C34.9752 51.6301 34.961 51.6292 34.9464 51.6268C34.9274 51.624 34.9077 51.6189 34.8921 51.6135C20.6898 48.8402 7.25982 57.4767 4.92021 70.8952C2.5804 84.3129 12.1954 97.5226 26.3616 100.4C26.3747 100.403 26.3865 100.406 26.398 100.409L26.4483 100.422L26.4711 100.427L56.7407 106.462L42.665 131.82C42.6605 131.833 42.6529 131.846 42.6452 131.86C42.6373 131.873 42.6297 131.886 42.6252 131.9C36.0636 143.811 41.1093 159.04 53.8907 165.864Z" fill="#CCCE6D"/>
</g>
<defs>
<filter id="filter0_d_1_12" x="0.569469" y="0.96167" width="185.796" height="176.21" filterUnits="userSpaceOnUse" color-interpolation-filters="sRGB">
<feFlood flood-opacity="0" result="BackgroundImageFix"/>
<feColorMatrix in="SourceAlpha" type="matrix" values="0 0 0 0 0 0 0 0 0 0 0 0 0 0 0 0 0 0 127 0" result="hardAlpha"/>
<feOffset dy="4"/>
<feGaussianBlur stdDeviation="2"/>
<feComposite in2="hardAlpha" operator="out"/>
<feColorMatrix type="matrix" values="0 0 0 0 0 0 0 0 0 0 0 0 0 0 0 0 0 0 0.25 0"/>
<feBlend mode="normal" in2="BackgroundImageFix" result="effect1_dropShadow_1_12"/>
<feBlend mode="normal" in="SourceGraphic" in2="effect1_dropShadow_1_12" result="shape"/>
</filter>
</defs>
</svg>
