<svg width="99" height="106" viewBox="0 0 99 106" fill="none" xmlns="http://www.w3.org/2000/svg">
<path d="M71.7816 0.791466C72.7218 -0.793685 74.9572 0.221365 74.383 1.97266L69.5644 16.6639C63.3422 35.6341 70.0328 55.8562 85.7477 65.578L97.9179 73.1068C99.3688 74.0046 98.27 76.4253 96.6394 75.9238L82.9617 71.716C65.3003 66.2827 45.676 74.5561 35.4936 91.728L27.608 105.027C26.6678 106.612 24.4323 105.597 25.0067 103.845L29.8253 89.1542C36.0474 70.1841 29.3568 49.962 13.6417 40.2402L1.4715 32.7113C0.0208538 31.8137 1.11959 29.393 2.75007 29.8944L16.4277 34.1022C34.0893 39.5355 53.7136 31.2621 63.896 14.0901L71.7816 0.791466Z" fill="#FFDB66"/>
</svg>
