<svg width="1511" height="381" viewBox="0 0 1511 381" fill="none" xmlns="http://www.w3.org/2000/svg">
<path d="M27.6405 127.19C27.6405 118.53 15.2651 111.509 0 111.509V0C123.819 0 224.193 56.9451 224.193 127.19V358.92C224.193 367.58 236.568 374.601 251.833 374.601C267.099 374.601 279.474 367.58 279.474 358.92V127.19C279.474 56.9451 379.848 0 503.669 0C627.485 0 727.859 56.9451 727.859 127.19V358.92C727.859 367.58 740.237 374.601 755.5 374.601C770.763 374.601 783.141 367.58 783.141 358.92V127.19C783.141 56.9451 883.515 0 1007.33 0C1131.15 0 1231.53 56.9451 1231.53 127.19V358.92C1231.53 367.58 1243.9 374.601 1259.17 374.601C1274.43 374.601 1286.81 367.58 1286.81 358.92V127.19C1286.81 56.9451 1387.18 0 1511 0V111.509C1495.74 111.509 1483.36 118.53 1483.36 127.19V358.92C1483.36 386.822 1368.24 378.735 1244.43 378.735C1120.6 378.735 1034.97 386.822 1034.97 358.92V127.19C1034.97 118.53 1022.6 111.509 1007.33 111.509C992.068 111.509 979.69 118.53 979.69 127.19V358.92C979.69 387.72 871.946 380.083 748.129 380.083C624.312 380.083 522.094 380.083 531.31 358.92V127.19C531.31 118.53 518.932 111.509 503.669 111.509C488.4 111.509 476.028 118.53 476.028 127.19V358.92C476.028 388.619 375.652 374.601 251.833 374.601C128.015 374.601 23.3407 385.025 27.6405 358.92V127.19Z" fill="#FFFDF5" fill-opacity="0.15"/>
</svg>
