<svg width="1512" height="658" viewBox="0 0 1512 658" fill="none" xmlns="http://www.w3.org/2000/svg">
<path d="M27.6588 172.165C27.6588 160.443 15.2752 150.939 0 150.939V0C123.9 0 224.342 77.081 224.342 172.165V485.835C224.342 497.557 236.725 507.061 252 507.061C267.276 507.061 279.659 497.557 279.659 485.835V172.165C279.659 77.081 380.1 0 504.002 0C627.901 0 728.341 77.081 728.341 172.165V485.835C728.341 497.557 740.727 507.061 756 507.061C771.273 507.061 783.659 497.557 783.659 485.835V172.165C783.659 77.081 884.099 0 1008 0C1131.9 0 1232.34 77.081 1232.34 172.165V485.835C1232.34 497.557 1244.72 507.061 1260 507.061C1275.28 507.061 1287.66 497.557 1287.66 485.835V172.165C1287.66 77.081 1388.1 0 1512 0V150.939C1496.73 150.939 1484.34 160.443 1484.34 172.165V485.835C1484.34 580.918 1383.9 658 1260 658C1136.1 658 1035.66 580.918 1035.66 485.835V172.165C1035.66 160.443 1023.28 150.939 1008 150.939C992.725 150.939 980.339 160.443 980.339 172.165V485.835C980.339 580.918 879.899 658 756 658C632.101 658 531.661 580.918 531.661 485.835V172.165C531.661 160.443 519.275 150.939 504.002 150.939C488.723 150.939 476.343 160.443 476.343 172.165V485.835C476.343 580.918 375.9 658 252 658C128.099 658 27.6588 580.918 27.6588 485.835V172.165Z" fill="#EE771A" fill-opacity="0.1"/>
</svg>
