<svg width="1511" height="654" viewBox="0 0 1511 654" fill="none" xmlns="http://www.w3.org/2000/svg">
<path d="M27.6405 171.118C27.6405 159.468 15.2651 150.022 0 150.022V0C123.819 0 224.193 76.6124 224.193 171.118V482.882C224.193 494.532 236.568 503.978 251.833 503.978C267.099 503.978 279.474 494.532 279.474 482.882V171.118C279.474 76.6124 379.848 0 503.669 0C627.485 0 727.859 76.6124 727.859 171.118V482.882C727.859 494.532 740.237 503.978 755.5 503.978C770.763 503.978 783.141 494.532 783.141 482.882V171.118C783.141 76.6124 883.515 0 1007.33 0C1131.15 0 1231.53 76.6124 1231.53 171.118V482.882C1231.53 494.532 1243.9 503.978 1259.17 503.978C1274.43 503.978 1286.81 494.532 1286.81 482.882V171.118C1286.81 76.6124 1387.18 0 1511 0V150.022C1495.74 150.022 1483.36 159.468 1483.36 171.118V482.882C1483.36 577.387 1382.99 654 1259.17 654C1135.35 654 1034.97 577.387 1034.97 482.882V171.118C1034.97 159.468 1022.6 150.022 1007.33 150.022C992.068 150.022 979.69 159.468 979.69 171.118V482.882C979.69 577.387 879.317 654 755.5 654C631.683 654 531.31 577.387 531.31 482.882V171.118C531.31 159.468 518.932 150.022 503.669 150.022C488.4 150.022 476.028 159.468 476.028 171.118V482.882C476.028 577.387 375.652 654 251.833 654C128.015 654 27.6405 577.387 27.6405 482.882V171.118Z" fill="#CCCE6D" fill-opacity="0.2"/>
</svg>
